<?xml version="1.0" encoding="UTF-8"?>
<svg xmlns="http://www.w3.org/2000/svg" xmlns:xlink="http://www.w3.org/1999/xlink" viewBox="0 0 21 21" width="21px" height="21px">
<g id="surface257410241">
<path style=" stroke:none;fill-rule:nonzero;fill:rgb(26.666668%,29.019609%,20.392157%);fill-opacity:1;" d="M 7.21875 4.59375 C 3.957031 4.59375 1.3125 7.238281 1.3125 10.5 C 1.3125 13.761719 3.957031 16.40625 7.21875 16.40625 C 10.480469 16.40625 13.125 13.761719 13.125 10.5 C 13.125 10.09375 13.082031 9.699219 13.003906 9.320312 L 12.972656 9.1875 L 7.21875 9.1875 L 7.21875 11.15625 L 11.15625 11.15625 C 10.84375 13.019531 9.167969 14.4375 7.21875 14.4375 C 5.042969 14.4375 3.28125 12.675781 3.28125 10.5 C 3.28125 8.324219 5.042969 6.5625 7.21875 6.5625 C 8.203125 6.5625 9.101562 6.925781 9.792969 7.523438 L 11.203125 6.140625 C 10.152344 5.179688 8.753906 4.59375 7.21875 4.59375 Z M 16.40625 7.21875 L 16.40625 9.1875 L 14.4375 9.1875 L 14.4375 10.5 L 16.40625 10.5 L 16.40625 12.46875 L 17.71875 12.46875 L 17.71875 10.5 L 19.6875 10.5 L 19.6875 9.1875 L 17.71875 9.1875 L 17.71875 7.21875 Z M 16.40625 7.21875 "/>
</g>
</svg>
