<?xml version="1.0" encoding="UTF-8"?>
<svg xmlns="http://www.w3.org/2000/svg" xmlns:xlink="http://www.w3.org/1999/xlink" viewBox="0 0 21 21" width="21px" height="21px">
<g id="surface5302247">
<path style=" stroke:none;fill-rule:nonzero;fill:rgb(26.666668%,29.019609%,20.392157%);fill-opacity:1;" d="M 3.683594 6.125 L 3.707031 6.125 C 4.925781 6.125 5.6875 5.25 5.6875 4.15625 C 5.664062 3.039062 4.925781 2.1875 3.730469 2.1875 C 2.53125 2.1875 1.75 3.039062 1.75 4.15625 C 1.75 5.25 2.507812 6.125 3.683594 6.125 Z M 1.75 7.4375 L 5.6875 7.4375 L 5.6875 18.8125 L 1.75 18.8125 Z M 19.25 11.59375 C 19.25 9.296875 17.390625 7.4375 15.09375 7.4375 C 13.757812 7.4375 12.574219 8.070312 11.8125 9.050781 L 11.8125 7.4375 L 7.875 7.4375 L 7.875 18.8125 L 11.8125 18.8125 L 11.8125 12.25 C 11.8125 11.285156 12.597656 10.5 13.5625 10.5 C 14.527344 10.5 15.3125 11.285156 15.3125 12.25 L 15.3125 18.8125 L 19.25 18.8125 C 19.25 18.8125 19.25 12.230469 19.25 11.59375 Z M 19.25 11.59375 "/>
</g>
</svg>
