<?xml version="1.0" encoding="UTF-8"?>
<svg xmlns="http://www.w3.org/2000/svg" xmlns:xlink="http://www.w3.org/1999/xlink" viewBox="0 0 21 21" width="21px" height="21px">
<g id="surface5124864">
<path style=" stroke:none;fill-rule:nonzero;fill:rgb(26.666668%,29.019609%,20.392157%);fill-opacity:1;" d="M 18.375 5.4375 C 17.796875 5.695312 17.171875 5.863281 16.515625 5.945312 C 17.183594 5.550781 17.699219 4.917969 17.9375 4.171875 C 17.316406 4.535156 16.621094 4.804688 15.886719 4.949219 C 15.296875 4.324219 14.460938 3.9375 13.53125 3.9375 C 11.746094 3.9375 10.296875 5.371094 10.296875 7.140625 C 10.296875 7.390625 10.328125 7.632812 10.382812 7.871094 C 7.699219 7.734375 5.316406 6.460938 3.722656 4.523438 C 3.441406 4.996094 3.285156 5.550781 3.285156 6.132812 C 3.285156 7.246094 3.855469 8.226562 4.722656 8.800781 C 4.191406 8.785156 3.695312 8.636719 3.257812 8.402344 C 3.257812 8.410156 3.257812 8.425781 3.257812 8.4375 C 3.257812 9.992188 4.371094 11.285156 5.847656 11.582031 C 5.578125 11.65625 5.292969 11.695312 5 11.695312 C 4.789062 11.695312 4.585938 11.671875 4.390625 11.636719 C 4.800781 12.90625 5.996094 13.835938 7.40625 13.863281 C 6.300781 14.71875 4.910156 15.234375 3.394531 15.234375 C 3.132812 15.234375 2.875 15.21875 2.625 15.1875 C 4.054688 16.09375 5.753906 16.625 7.578125 16.625 C 13.519531 16.625 16.773438 11.746094 16.773438 7.511719 C 16.773438 7.371094 16.769531 7.234375 16.761719 7.097656 C 17.394531 6.648438 17.941406 6.082031 18.375 5.4375 "/>
</g>
</svg>
